<svg id="Layer_1" data-name="Layer 1" xmlns="http://www.w3.org/2000/svg" viewBox="0 0 1000 1000"><defs><style>.cls-1{fill:#fff;}.cls-2{fill:#a9212e;}.cls-3{fill:none;stroke:#fff;stroke-miterlimit:10;}.cls-4{fill:#878787;}</style></defs><path class="cls-1" d="M983,500a481.52,481.52,0,0,1-35.75,182.7q-4.05,9.9-8.53,19.57c-62.32,135-185.12,236.32-333.64,269.26A484.41,484.41,0,0,1,500,983C233.25,983,17,766.75,17,500S233.25,17,500,17A480.67,480.67,0,0,1,745.58,84C887.7,168.09,983,322.92,983,500Z"/><path class="cls-2" d="M500,47A453.12,453.12,0,0,1,676.32,917.41,453.12,453.12,0,0,1,323.68,82.59,450,450,0,0,1,500,47m0-30C233.25,17,17,233.25,17,500S233.25,983,500,983,983,766.75,983,500,766.75,17,500,17Z"/><polygon points="395.63 554.87 411.56 605.91 114.33 443.81 395.63 554.87"/><polygon class="cls-2" points="485.84 193.66 463.18 456.01 421.67 456.01 485.84 193.66"/><polygon class="cls-3" points="500.65 138.4 500.44 140.82 500.01 135.81 500.65 138.4"/><polygon class="cls-2" points="500.44 140.82 527.66 456.01 473.22 456.01 500.44 140.82"/><polygon class="cls-2" points="578.33 456.01 537.71 456.01 515.53 199.25 578.33 456.01"/><polygon class="cls-4" points="408.86 464.54 494.07 549.43 425.28 616.3 403.75 547.32 117.56 434.33 408.86 464.54"/><polygon points="579.89 466.01 501.24 542.46 424.5 466.01 579.89 466.01"/><polygon points="592.64 566.49 547.57 722.2 547.56 722.24 500 854.47 497.18 846.62 449.76 694.73 592.64 566.49"/><polygon points="885.06 444.14 592.7 602.29 606.43 554.84 885.06 444.14"/><path class="cls-1" d="M417.24,624.11l-.07.08.74,2.07Z"/><polygon class="cls-4" points="882.72 434.3 597.9 548.32 446.49 684.23 440.65 689.47 438.3 691.58 378.78 745 421.32 637.17 421.59 636.48 423.28 632.19 428.62 627 596.29 464.01 882.72 434.3"/><polygon class="cls-1" points="500.65 138.4 500.44 140.82 500.01 135.81 500.65 138.4"/><polygon class="cls-1" points="500.65 138.4 500.44 140.82 500.01 135.81 500.65 138.4"/></svg>